<?xml version="1.0" encoding="UTF-8" standalone="no"?>
<!-- Created with Inkscape (http://www.inkscape.org/) -->

<svg
   xmlns:dc="http://purl.org/dc/elements/1.1/"
   xmlns:cc="http://creativecommons.org/ns#"
   xmlns:rdf="http://www.w3.org/1999/02/22-rdf-syntax-ns#"
   xmlns:svg="http://www.w3.org/2000/svg"
   xmlns="http://www.w3.org/2000/svg"
   xmlns:sodipodi="http://sodipodi.sourceforge.net/DTD/sodipodi-0.dtd"
   xmlns:inkscape="http://www.inkscape.org/namespaces/inkscape"
   width="300"
   height="300"
   viewBox="0 0 300.00001 300.00001"
   id="svg4895"
   version="1.1"
   inkscape:version="0.91 r13725"
   sodipodi:docname="heart.svg">
  <defs
     id="defs4897" />
  <sodipodi:namedview
     id="base"
     pagecolor="#ffffff"
     bordercolor="#666666"
     borderopacity="1.0"
     inkscape:pageopacity="0.0"
     inkscape:pageshadow="2"
     inkscape:zoom="0.75195312"
     inkscape:cx="447.11188"
     inkscape:cy="254.02597"
     inkscape:document-units="px"
     inkscape:current-layer="layer1"
     showgrid="false"
     units="px"
     inkscape:window-width="1366"
     inkscape:window-height="705"
     inkscape:window-x="-8"
     inkscape:window-y="-8"
     inkscape:window-maximized="1" />
  <metadata
     id="metadata4900">
    <rdf:RDF>
      <cc:Work
         rdf:about="">
        <dc:format>image/svg+xml</dc:format>
        <dc:type
           rdf:resource="http://purl.org/dc/dcmitype/StillImage" />
        <dc:title></dc:title>
      </cc:Work>
    </rdf:RDF>
  </metadata>
  <g
     inkscape:label="Layer 1"
     inkscape:groupmode="layer"
     id="layer1"
     transform="translate(0,-752.36208)">
    <path
       style="fill:#ff0000;fill-rule:evenodd;stroke:#000000;stroke-width:2.10560083;stroke-linecap:butt;stroke-linejoin:miter;stroke-miterlimit:4;stroke-dasharray:none;stroke-opacity:1"
       d="m 145.74345,1006.8859 c -0.70234,-2.5315 -125.149774,-83.91913 -116.588276,-142.3992 5.01151,-34.23161 52.828134,-73.28825 89.899396,-64.55432 21.03033,4.95472 24.58186,54.42815 24.58186,54.42815 0,0 65.784,-63.88148 103.24385,-52.5295 28.52526,8.64442 41.05936,47.97567 35.81929,74.6805 -11.56268,58.92662 -136.95612,130.37437 -136.95612,130.37437 z"
       id="path5443"
       inkscape:connector-curvature="0"
       sodipodi:nodetypes="caacaac" />
    <path
       sodipodi:nodetypes="caacaac"
       inkscape:connector-curvature="0"
       id="path5445"
       d="m 212.50305,1035.4394 c -0.37436,-1.25 -66.70868,-41.43825 -62.14515,-70.31501 2.6713,-16.90316 28.15903,-36.18886 47.91916,-31.87615 11.2098,2.44658 13.10289,26.87597 13.10289,26.87597 0,0 35.06489,-31.54391 55.03215,-25.93844 15.20484,4.26852 21.8859,23.68981 19.09279,36.87633 -6.16328,29.0973 -73.00184,64.3773 -73.00184,64.3773 z"
       style="fill:#ff0000;fill-rule:evenodd;stroke:#000000;stroke-width:1.71105146;stroke-linecap:round;stroke-linejoin:miter;stroke-miterlimit:4;stroke-dasharray:none;stroke-opacity:1" />
  </g>
</svg>
