<?xml version="1.0" encoding="utf-8"?>

<!DOCTYPE svg PUBLIC "-//W3C//DTD SVG 1.1//EN" "http://www.w3.org/Graphics/SVG/1.1/DTD/svg11.dtd">
<svg version="1.1" id="Layer_1" xmlns="http://www.w3.org/2000/svg" xmlns:xlink="http://www.w3.org/1999/xlink" x="0px" y="0px"
	 viewBox="0 0 1780.998 1623.892" enable-background="new 0 0 1780.998 1623.892" xml:space="preserve">
<g id="Red_Heart">
	<g id="Red_Heart_1_">
		<g enable-background="new    ">
			<polygon fill="#FF0000" points="1755.21,351.359 1746.118,325.511 1719.186,320.461 1737.025,299.662 1727.933,273.814 
				1714.222,250.071 1686.804,250.073 1700.511,226.328 1686.801,202.584 1668.839,182.058 1642.083,187.35 1650.879,161.532 
				1632.917,141.005 1611.256,124.242 1585.908,134.62 1589.595,107.478 1567.933,90.715 1543.581,78.121 1520.497,92.913 
				1519.228,65.525 1494.876,52.931 1468.927,44.476 1448.63,62.721 1442.978,36.021 1417.029,27.567 1389.985,22.851 
				1372.379,43.914 1362.94,18.135 1335.896,13.42 1317.772,12.424 1307.849,27.622 1299.649,11.429 1281.526,10.433 
				1254.085,12.937 1242.533,37.953 1226.644,15.44 1199.203,17.944 1172.687,25.788 1166.221,52.673 1146.17,33.631 
				1119.653,41.474 1095.46,54.493 1094.638,81.954 1071.267,67.512 1047.074,80.531 1025.811,98.156 1030.443,125.383 
				1004.547,115.781 983.284,133.406 965.539,154.498 974.932,180.411 947.794,175.589 930.049,196.68 915.764,220.361 
				929.129,244.572 901.479,244.041 887.194,267.721 874.772,246.765 850.412,247.044 862.35,225.808 849.928,204.851 
				834.662,185.802 810.533,189.499 819.397,166.754 804.131,147.705 786.05,131.367 762.86,138.856 767.969,115.028 749.888,98.69 
				729.321,85.777 707.855,97.132 708.754,72.864 688.187,59.951 665.675,50.862 646.547,65.814 643.162,41.773 620.65,32.684 
				596.711,27.437 580.198,45.545 572.773,22.19 548.835,16.944 524.607,15.324 511.091,35.495 500.38,13.704 476.152,12.084 
				462.846,12.53 456.578,24.276 449.54,12.975 436.233,13.42 411.785,16.762 402.456,39.605 387.337,20.104 362.89,23.446 
				339.185,30.397 333.353,54.401 315.481,37.348 291.777,44.299 269.531,55 267.675,79.616 247.285,65.701 225.039,76.401 
				205.057,90.724 207.469,115.191 185.074,105.047 165.092,119.37 147.869,137.102 154.614,160.884 130.645,154.834 
				113.422,172.567 99.562,192.958 110.291,215.156 85.701,213.348 71.841,233.739 61.442,256.04 75.555,276.197 51.042,278.341 
				40.643,300.642 33.488,324.329 50.424,342.368 26.333,348.016 19.179,371.703 15.469,395.391 34.129,410.447 11.759,419.079 
				8.05,442.767 7.798,466.752 28.444,478.962 7.546,490.737 7.295,514.722 10.337,538.604 32.541,547.911 13.379,562.487 
				16.422,586.37 22.327,609.559 45.361,616.04 28.232,632.748 34.137,655.937 42.471,678.433 66.121,682.464 50.805,700.93 
				59.139,723.427 69.47,745.15 93.448,747.066 79.8,766.874 90.13,788.598 102,809.413 125.961,809.542 113.869,830.229 
				125.738,851.044 138.924,871.158 162.937,869.796 152.11,891.273 165.295,911.388 179.45,930.712 203.263,928.117 
				193.604,950.037 207.758,969.362 222.727,988.033 246.381,984.405 237.696,1006.704 252.664,1025.375 268.389,1043.566 
				292.005,1039.044 284.113,1061.758 299.837,1079.949 316.152,1097.659 339.647,1092.385 332.467,1115.369 348.782,1133.079 
				365.494,1150.263 388.732,1144.382 382.206,1167.448 398.918,1184.632 416.093,1201.49 439.28,1195.045 433.268,1218.348 
				450.443,1235.205 467.885,1251.652 490.849,1244.77 485.327,1268.098 502.769,1284.545 520.553,1300.74 543.47,1293.438 
				538.336,1316.937 556.119,1333.132 574.064,1348.991 596.77,1341.38 592.008,1364.849 609.952,1380.708 628.075,1396.313 
				650.651,1388.422 646.197,1411.919 664.319,1427.525 682.751,1443.046 705.409,1434.844 701.183,1458.567 719.615,1474.088 
				738.131,1489.383 760.636,1480.996 756.647,1504.679 775.164,1519.975 793.729,1535.066 816.08,1526.533 812.293,1550.157 
				830.858,1565.248 849.637,1580.309 872.07,1571.578 868.416,1595.371 887.194,1610.433 906.579,1595.811 903.608,1571.713 
				925.963,1581.19 945.348,1566.568 964.575,1551.672 961.289,1527.573 983.802,1536.776 1003.03,1521.881 1022.096,1506.681 
				1018.466,1482.57 1041.163,1491.482 1060.229,1476.283 1078.999,1460.854 1075.022,1436.885 1097.769,1445.426 
				1116.539,1429.997 1135.188,1414.151 1130.79,1390.077 1153.838,1398.304 1172.487,1382.458 1190.736,1366.384 
				1185.941,1342.543 1208.986,1350.311 1227.235,1334.237 1245.192,1317.789 1239.926,1294.014 1263.149,1301.341 
				1281.106,1284.893 1298.646,1268.122 1292.892,1244.547 1316.185,1251.352 1333.725,1234.581 1350.925,1217.334 
				1344.589,1193.815 1368.125,1200.088 1385.325,1182.841 1402.038,1165.165 1395.088,1141.853 1418.752,1147.49 
				1435.466,1129.815 1451.633,1111.66 1443.995,1088.582 1467.8,1093.506 1483.967,1075.352 1499.548,1056.614 1491.11,1033.751 
				1515.129,1037.875 1530.71,1019.137 1545.547,999.811 1536.23,977.298 1560.386,980.485 1575.224,961.159 1589.21,941.142 
				1578.868,919.022 1603.196,921.126 1617.182,901.109 1630.046,880.478 1618.611,859.021 1642.911,859.846 1655.776,839.215 
				1667.36,817.811 1654.617,797.076 1678.946,796.407 1690.531,775.003 1700.491,752.902 1686.331,733.225 1710.452,730.8 
				1720.413,708.699 1728.467,685.694 1712.573,667.217 1736.522,662.69 1744.577,639.686 1750.227,615.927 1732.477,599.155 
				1755.878,592.169 1761.528,568.411 1764.253,544.307 1744.741,529.895 1766.978,520.202 1769.703,496.098 1769.094,471.772 
				1747.722,460.136 1768.485,447.446 1767.876,423.12 1763.654,399.199 1740.827,390.895 1759.432,375.279 			"/>
		</g>
	</g>
</g>
</svg>
